<svg width="24" height="24" viewBox="0 0 24 24" fill="none" xmlns="http://www.w3.org/2000/svg">
<path fill-rule="evenodd" clip-rule="evenodd" d="M12 3.74986C7.44365 3.74986 3.75 7.44351 3.75 11.9999C3.75 16.5562 7.44365 20.2499 12 20.2499C16.5563 20.2499 20.25 16.5562 20.25 11.9999C20.25 7.44351 16.5563 3.74986 12 3.74986ZM2.25 11.9999C2.25 6.61508 6.61522 2.24986 12 2.24986C17.3848 2.24986 21.75 6.61508 21.75 11.9999C21.75 17.3846 17.3848 21.7499 12 21.7499C6.61522 21.7499 2.25 17.3846 2.25 11.9999Z" fill="#5C5E61"/>
<path fill-rule="evenodd" clip-rule="evenodd" d="M2.85 8.99986C2.85 8.58564 3.18579 8.24986 3.6 8.24986H20.4C20.8142 8.24986 21.15 8.58564 21.15 8.99986C21.15 9.41407 20.8142 9.74986 20.4 9.74986H3.6C3.18579 9.74986 2.85 9.41407 2.85 8.99986Z" fill="#5C5E61"/>
<path fill-rule="evenodd" clip-rule="evenodd" d="M2.85 14.9999C2.85 14.5856 3.18579 14.2499 3.6 14.2499H20.4C20.8142 14.2499 21.15 14.5856 21.15 14.9999C21.15 15.4141 20.8142 15.7499 20.4 15.7499H3.6C3.18579 15.7499 2.85 15.4141 2.85 14.9999Z" fill="#5C5E61"/>
<path fill-rule="evenodd" clip-rule="evenodd" d="M11.8971 2.36358C12.2485 2.58287 12.3556 3.04551 12.1363 3.39692C10.5259 5.97743 9.6722 8.95811 9.6722 11.9999C9.6722 15.0416 10.5259 18.0223 12.1363 20.6028C12.3556 20.9542 12.2485 21.4168 11.8971 21.6361C11.5457 21.8554 11.083 21.7483 10.8637 21.3969C9.10474 18.5782 8.1722 15.3224 8.1722 11.9999C8.1722 8.67733 9.10474 5.42151 10.8637 2.6028C11.083 2.25139 11.5457 2.14429 11.8971 2.36358Z" fill="#5C5E61"/>
<path fill-rule="evenodd" clip-rule="evenodd" d="M12.1029 2.36358C12.4543 2.14429 12.917 2.25139 13.1363 2.6028C14.8953 5.42151 15.8278 8.67733 15.8278 11.9999C15.8278 15.3224 14.8953 18.5782 13.1363 21.3969C12.917 21.7483 12.4543 21.8554 12.1029 21.6361C11.7515 21.4168 11.6444 20.9542 11.8637 20.6028C13.4741 18.0223 14.3278 15.0416 14.3278 11.9999C14.3278 8.95811 13.4741 5.97743 11.8637 3.39692C11.6444 3.04551 11.7515 2.58287 12.1029 2.36358Z" fill="#5C5E61"/>
</svg>
