<svg width="86" height="86" viewBox="0 0 86 86" fill="none" xmlns="http://www.w3.org/2000/svg">
<circle cx="43" cy="43" r="42.5" fill="#EEF0F7"/>
<path fill-rule="evenodd" clip-rule="evenodd" d="M27 27.3252C26.7239 27.3252 26.5 27.5491 26.5 27.8252V35.8252C26.5 36.1013 26.7239 36.3252 27 36.3252H35C35.2761 36.3252 35.5 36.1013 35.5 35.8252V27.8252C35.5 27.5491 35.2761 27.3252 35 27.3252H27ZM23.5 27.8252C23.5 25.8922 25.067 24.3252 27 24.3252H35C36.933 24.3252 38.5 25.8922 38.5 27.8252V35.8252C38.5 37.7582 36.933 39.3252 35 39.3252H27C25.067 39.3252 23.5 37.7582 23.5 35.8252V27.8252Z" fill="#F44336"/>
<path fill-rule="evenodd" clip-rule="evenodd" d="M51 51.3252C50.7239 51.3252 50.5 51.5491 50.5 51.8252V59.8252C50.5 60.1013 50.7239 60.3252 51 60.3252H59C59.2761 60.3252 59.5 60.1013 59.5 59.8252V51.8252C59.5 51.5491 59.2761 51.3252 59 51.3252H51ZM47.5 51.8252C47.5 49.8922 49.067 48.3252 51 48.3252H59C60.933 48.3252 62.5 49.8922 62.5 51.8252V59.8252C62.5 61.7582 60.933 63.3252 59 63.3252H51C49.067 63.3252 47.5 61.7582 47.5 59.8252V51.8252Z" fill="#F44336"/>
<path fill-rule="evenodd" clip-rule="evenodd" d="M52.0607 24.7645C52.6464 25.3503 52.6464 26.3001 52.0607 26.8859L48.6213 30.3252H57C58.4587 30.3252 59.8576 30.9047 60.8891 31.9361C61.9205 32.9676 62.5 34.3665 62.5 35.8252V41.8252C62.5 42.6536 61.8284 43.3252 61 43.3252C60.1716 43.3252 59.5 42.6536 59.5 41.8252V35.8252C59.5 35.1622 59.2366 34.5263 58.7678 34.0574C58.2989 33.5886 57.663 33.3252 57 33.3252H45C44.3933 33.3252 43.8464 32.9597 43.6142 32.3992C43.382 31.8387 43.5103 31.1935 43.9393 30.7645L49.9393 24.7645C50.5251 24.1787 51.4749 24.1787 52.0607 24.7645Z" fill="#F44336"/>
<path fill-rule="evenodd" clip-rule="evenodd" d="M25 44.3252C25.8284 44.3252 26.5 44.9968 26.5 45.8252V51.8252C26.5 52.4882 26.7634 53.1241 27.2322 53.593C27.7011 54.0618 28.337 54.3252 29 54.3252H41C41.6067 54.3252 42.1536 54.6907 42.3858 55.2512C42.618 55.8117 42.4897 56.4569 42.0607 56.8859L36.0607 62.8859C35.4749 63.4716 34.5251 63.4716 33.9393 62.8859C33.3536 62.3001 33.3536 61.3503 33.9393 60.7645L37.3787 57.3252H29C27.5413 57.3252 26.1424 56.7457 25.1109 55.7143C24.0795 54.6828 23.5 53.2839 23.5 51.8252V45.8252C23.5 44.9968 24.1716 44.3252 25 44.3252Z" fill="#F44336"/>
</svg>
