<svg width="86" height="86" viewBox="0 0 86 86" fill="none" xmlns="http://www.w3.org/2000/svg">
<circle cx="43" cy="43" r="42.5" fill="#EEF0F7"/>
<path d="M45.9538 31.8744C44.684 31.6435 43.3752 31.64 42.1038 31.8641C40.8324 32.0881 39.6293 32.5343 38.5624 33.1717C36.407 34.4595 34.9556 36.4346 34.4635 38.6271C34.3098 39.3119 33.7018 39.7986 32.9999 39.7986C30.8813 39.7986 28.8622 40.6043 27.3835 42.0186C25.9071 43.4308 25.0908 45.3315 25.0908 47.2986C25.0908 49.2657 25.9071 51.1664 27.3835 52.5786C28.8622 53.993 30.8813 54.7986 32.9999 54.7986C33.8283 54.7986 34.4999 55.4702 34.4999 56.2986C34.4999 57.127 33.8283 57.7986 32.9999 57.7986C30.1276 57.7986 27.3603 56.7078 25.3098 54.7465C23.2571 52.7831 22.0908 50.1054 22.0908 47.2986C22.0908 44.4918 23.2571 41.8142 25.3098 39.8507C27.0849 38.1528 29.3972 37.1073 31.8497 36.8571C32.7284 34.2741 34.5661 32.0647 37.0237 30.5964C38.4125 29.7666 39.962 29.1953 41.5831 28.9096C43.2043 28.6239 44.8711 28.6284 46.4905 28.9228C48.1098 29.2172 49.6557 29.797 51.0392 30.6343C52.4229 31.4718 53.6203 32.5527 54.5566 33.8221C55.4932 35.0918 56.1492 36.5242 56.4787 38.0389C56.6768 38.9492 56.7539 39.8758 56.7103 40.7986H56.9999C59.2543 40.7986 61.4163 41.6941 63.0103 43.2882C64.6044 44.8823 65.4999 47.0443 65.4999 49.2986C65.4999 51.5529 64.6044 53.715 63.0103 55.309C61.4163 56.9031 59.2542 57.7986 56.9999 57.7986H54.9999C54.1715 57.7986 53.4999 57.127 53.4999 56.2986C53.4999 55.4702 54.1715 54.7986 54.9999 54.7986H56.9999C58.4586 54.7986 59.8576 54.2191 60.889 53.1877C61.9205 52.1562 62.4999 50.7573 62.4999 49.2986C62.4999 47.8399 61.9205 46.441 60.889 45.4095C59.8576 44.3781 58.4586 43.7986 56.9999 43.7986H54.9999C54.5444 43.7986 54.1135 43.5916 53.8288 43.2359C53.5442 42.8803 53.4366 42.4146 53.5363 41.9701C53.7803 40.883 53.784 39.7649 53.5473 38.6767C53.3104 37.5881 52.8359 36.5431 52.1423 35.6029C51.4484 34.6622 50.5479 33.8437 49.4858 33.2008C48.4235 32.5578 47.2235 32.1053 45.9538 31.8744Z" fill="#F44336"/>
<path d="M43.5742 42.9124C43.7511 42.9856 43.9168 43.0941 44.0607 43.2379L50.0607 49.2379C50.6464 49.8237 50.6464 50.7735 50.0607 51.3592C49.4749 51.945 48.5251 51.945 47.9393 51.3592L44.5 47.9199V62.2986C44.5 63.127 43.8284 63.7986 43 63.7986C42.1716 63.7986 41.5 63.127 41.5 62.2986V47.9199L38.0607 51.3592C37.4749 51.945 36.5251 51.945 35.9393 51.3592C35.3536 50.7735 35.3536 49.8237 35.9393 49.2379L41.9393 43.2379C42.0832 43.0941 42.2489 42.9856 42.4258 42.9124C42.6027 42.8391 42.7966 42.7986 43 42.7986C43.2034 42.7986 43.3973 42.8391 43.5742 42.9124Z" fill="#F44336"/>
</svg>
