<svg width="86" height="86" viewBox="0 0 86 86" fill="none" xmlns="http://www.w3.org/2000/svg">
<circle cx="43" cy="43" r="42.5" fill="#EEF0F7"/>
<path fill-rule="evenodd" clip-rule="evenodd" d="M23.5 27.8252C23.5 26.9968 24.1716 26.3252 25 26.3252H61C61.8284 26.3252 62.5 26.9968 62.5 27.8252C62.5 28.6536 61.8284 29.3252 61 29.3252H25C24.1716 29.3252 23.5 28.6536 23.5 27.8252Z" fill="#F44336"/>
<path fill-rule="evenodd" clip-rule="evenodd" d="M27 26.3252C27.8284 26.3252 28.5 26.9968 28.5 27.8252V47.8252C28.5 48.4882 28.7634 49.1241 29.2322 49.593C29.7011 50.0618 30.337 50.3252 31 50.3252H55C55.663 50.3252 56.2989 50.0618 56.7678 49.593C57.2366 49.1241 57.5 48.4882 57.5 47.8252V27.8252C57.5 26.9968 58.1716 26.3252 59 26.3252C59.8284 26.3252 60.5 26.9968 60.5 27.8252V47.8252C60.5 49.2839 59.9205 50.6828 58.8891 51.7143C57.8576 52.7457 56.4587 53.3252 55 53.3252H31C29.5413 53.3252 28.1424 52.7457 27.1109 51.7143C26.0795 50.6828 25.5 49.2839 25.5 47.8252V27.8252C25.5 26.9968 26.1716 26.3252 27 26.3252Z" fill="#F44336"/>
<path fill-rule="evenodd" clip-rule="evenodd" d="M43 50.3252C43.8284 50.3252 44.5 50.9968 44.5 51.8252V59.8252C44.5 60.6536 43.8284 61.3252 43 61.3252C42.1716 61.3252 41.5 60.6536 41.5 59.8252V51.8252C41.5 50.9968 42.1716 50.3252 43 50.3252Z" fill="#F44336"/>
<path fill-rule="evenodd" clip-rule="evenodd" d="M35.5 59.8252C35.5 58.9968 36.1716 58.3252 37 58.3252H49C49.8284 58.3252 50.5 58.9968 50.5 59.8252C50.5 60.6536 49.8284 61.3252 49 61.3252H37C36.1716 61.3252 35.5 60.6536 35.5 59.8252Z" fill="#F44336"/>
<path fill-rule="evenodd" clip-rule="evenodd" d="M52.0607 34.7645C52.6464 35.3503 52.6464 36.3001 52.0607 36.8859L46.0607 42.8859C45.4749 43.4716 44.5251 43.4716 43.9393 42.8859L41 39.9465L36.0607 44.8859C35.4749 45.4716 34.5251 45.4716 33.9393 44.8859C33.3536 44.3001 33.3536 43.3503 33.9393 42.7645L39.9393 36.7645C40.5251 36.1787 41.4749 36.1787 42.0607 36.7645L45 39.7039L49.9393 34.7645C50.5251 34.1787 51.4749 34.1787 52.0607 34.7645Z" fill="#F44336"/>
</svg>
