<svg width="86" height="86" viewBox="0 0 86 86" fill="none" xmlns="http://www.w3.org/2000/svg">
<circle cx="43" cy="43" r="42.5" fill="#EEF0F7"/>
<path fill-rule="evenodd" clip-rule="evenodd" d="M37 26.3826C33.4101 26.3826 30.5 29.2927 30.5 32.8826C30.5 36.4724 33.4101 39.3826 37 39.3826C40.5899 39.3826 43.5 36.4724 43.5 32.8826C43.5 29.2927 40.5899 26.3826 37 26.3826ZM27.5 32.8826C27.5 27.6359 31.7533 23.3826 37 23.3826C42.2467 23.3826 46.5 27.6359 46.5 32.8826C46.5 38.1293 42.2467 42.3826 37 42.3826C31.7533 42.3826 27.5 38.1293 27.5 32.8826Z" fill="#F44336"/>
<path fill-rule="evenodd" clip-rule="evenodd" d="M33 50.3826C31.2761 50.3826 29.6228 51.0674 28.4038 52.2864C27.1848 53.5054 26.5 55.1587 26.5 56.8826V60.8826C26.5 61.711 25.8284 62.3826 25 62.3826C24.1716 62.3826 23.5 61.711 23.5 60.8826V56.8826C23.5 54.363 24.5009 51.9467 26.2825 50.1651C28.0641 48.3835 30.4804 47.3826 33 47.3826H41C43.5196 47.3826 45.9359 48.3835 47.7175 50.1651C49.4991 51.9467 50.5 54.363 50.5 56.8826V60.8826C50.5 61.711 49.8284 62.3826 49 62.3826C48.1716 62.3826 47.5 61.711 47.5 60.8826V56.8826C47.5 55.1587 46.8152 53.5054 45.5962 52.2864C44.3772 51.0674 42.7239 50.3826 41 50.3826H33Z" fill="#F44336"/>
<path fill-rule="evenodd" clip-rule="evenodd" d="M57 33.3826C57.8284 33.3826 58.5 34.0541 58.5 34.8826V39.3826H63C63.8284 39.3826 64.5 40.0541 64.5 40.8826C64.5 41.711 63.8284 42.3826 63 42.3826H58.5V46.8826C58.5 47.711 57.8284 48.3826 57 48.3826C56.1716 48.3826 55.5 47.711 55.5 46.8826V42.3826H51C50.1716 42.3826 49.5 41.711 49.5 40.8826C49.5 40.0541 50.1716 39.3826 51 39.3826H55.5V34.8826C55.5 34.0541 56.1716 33.3826 57 33.3826Z" fill="#F44336"/>
</svg>
